<svg width="26" height="26" viewBox="0 0 26 26" fill="none" xmlns="http://www.w3.org/2000/svg">
<rect width="26" height="26" rx="7" fill="#301EBD"/>
<path d="M16.161 15.2646L15.7562 15.6908C15.7562 15.6908 14.7939 16.704 12.1672 13.9386C9.54055 11.1732 10.5028 10.1601 10.5028 10.1601L10.7578 9.89166C11.3858 9.23044 11.445 8.16886 10.8971 7.39387L9.77623 5.80855C9.09803 4.84933 7.78752 4.72262 7.01018 5.54101L5.61498 7.0099C5.22954 7.4157 4.97125 7.94173 5.00257 8.52528C5.0827 10.0182 5.72064 13.2303 9.28032 16.9779C13.0552 20.9522 16.5972 21.1102 18.0456 20.9672C18.5037 20.922 18.9022 20.6749 19.2232 20.3369L20.4859 19.0075C21.3383 18.1101 21.098 16.5717 20.0074 15.944L18.3092 14.9665C17.5931 14.5543 16.7207 14.6754 16.161 15.2646Z" fill="white"/>
</svg>
